<svg width="15" height="16" viewBox="0 0 15 16" fill="none" xmlns="http://www.w3.org/2000/svg">
<path d="M2.84302 8.89819C3.57218 9.62736 4.4576 9.99194 5.49927 9.99194C6.54093 9.99194 7.42635 9.62736 8.15552 8.89819C8.88468 8.16903 9.24927 7.28361 9.24927 6.24194C9.24927 5.20028 8.88468 4.31486 8.15552 3.58569C7.42635 2.85653 6.54093 2.49194 5.49927 2.49194C4.4576 2.49194 3.57218 2.85653 2.84302 3.58569C2.11385 4.31486 1.74927 5.20028 1.74927 6.24194C1.74927 7.28361 2.11385 8.16903 2.84302 8.89819ZM10.4993 9.99194L14.6399 14.1326L13.3899 15.3826L9.24927 11.2419V10.5779L9.01489 10.3435C8.02531 11.2029 6.85343 11.6326 5.49927 11.6326C3.98885 11.6326 2.69979 11.1117 1.63208 10.0701C0.590413 9.0284 0.0695801 7.75236 0.0695801 6.24194C0.0695801 4.73153 0.590413 3.45549 1.63208 2.41382C2.69979 1.34611 3.98885 0.812256 5.49927 0.812256C7.00968 0.812256 8.28573 1.34611 9.32739 2.41382C10.3691 3.45549 10.8899 4.73153 10.8899 6.24194C10.8899 6.78882 10.7597 7.41382 10.4993 8.11694C10.2389 8.79403 9.93937 9.3409 9.60083 9.75757L9.83521 9.99194H10.4993Z" fill="black"/>
</svg>
