<svg width="60" height="60" viewBox="0 0 60 60" fill="none" xmlns="http://www.w3.org/2000/svg">
<g clip-path="url(#clip0_120_268)">
<path d="M36.8799 37.8999V17.5874H13.4424V37.8999H36.8799ZM36.8799 37.8999H47.8174V30.0874L43.1299 25.3999H36.8799V37.8999ZM24.3799 41.8062C24.3799 43.9635 22.631 45.7124 20.4736 45.7124C18.3163 45.7124 16.5674 43.9635 16.5674 41.8062C16.5674 39.6488 18.3163 37.8999 20.4736 37.8999C22.631 37.8999 24.3799 39.6488 24.3799 41.8062ZM44.6924 41.8062C44.6924 43.9635 42.9435 45.7124 40.7861 45.7124C38.6288 45.7124 36.8799 43.9635 36.8799 41.8062C36.8799 39.6488 38.6288 37.8999 40.7861 37.8999C42.9435 37.8999 44.6924 39.6488 44.6924 41.8062Z" stroke="white" stroke-width="4" stroke-linecap="round" stroke-linejoin="round"/>
</g>
<g clip-path="url(#clip1_120_268)">
<path d="M28.3672 20.1875L31.1172 22.9375M31.1172 22.9375L28.3672 25.6875M31.1172 22.9375H21.4922C20.7628 22.9375 20.0634 23.2272 19.5476 23.743C19.0319 24.2587 18.7422 24.9582 18.7422 25.6875V27.0625M21.4922 35.3125L18.7422 32.5625M18.7422 32.5625L21.4922 29.8125M18.7422 32.5625H28.3672C29.0965 32.5625 29.796 32.2728 30.3117 31.757C30.8275 31.2413 31.1172 30.5418 31.1172 29.8125V28.4375" stroke="white" stroke-width="4" stroke-linecap="round" stroke-linejoin="round"/>
</g>
<path d="M52.5 40V20C52.4991 19.1232 52.2676 18.262 51.8288 17.5029C51.3901 16.7438 50.7593 16.1134 50 15.675L32.5 5.675C31.7399 5.23616 30.8777 5.00513 30 5.00513C29.1223 5.00513 28.2601 5.23616 27.5 5.675L10 15.675C9.24066 16.1134 8.60995 16.7438 8.17115 17.5029C7.73236 18.262 7.5009 19.1232 7.5 20V40C7.5009 40.8768 7.73236 41.738 8.17115 42.4971C8.60995 43.2562 9.24066 43.8866 10 44.325L27.5 54.325C28.2601 54.7638 29.1223 54.9949 30 54.9949C30.8777 54.9949 31.7399 54.7638 32.5 54.325L50 44.325C50.7593 43.8866 51.3901 43.2562 51.8288 42.4971C52.2676 41.738 52.4991 40.8768 52.5 40Z" stroke="white" stroke-width="4" stroke-linecap="round" stroke-linejoin="round"/>
<defs>
<clipPath id="clip0_120_268">
<rect width="37.5" height="37.5" fill="white" transform="translate(11.8799 12.8999)"/>
</clipPath>
<clipPath id="clip1_120_268">
<rect width="16.5" height="16.5" fill="white" transform="translate(16.6797 19.5)"/>
</clipPath>
</defs>
</svg>
